<?xml version="1.0" encoding="UTF-8"?><svg id="b" xmlns="http://www.w3.org/2000/svg" viewBox="0 0 69.023 48.174"><defs><style>.d{fill:#fff;}</style></defs><g id="c"><g><path d="m69.023,48.174c-4.541-1.014-10.404-1.902-17.253-1.902-6.851,0-12.716.888-17.259,1.902V2.333C38.669,1.188,44.308.08,51.031.004c7.417-.084,13.59,1.117,17.992,2.329v45.841Z"/><path d="m0,48.174c4.541-1.014,10.404-1.902,17.253-1.902,6.851,0,12.716.888,17.259,1.902,0-15.28,0-30.561,0-45.841C30.354,1.188,24.715.08,17.992.004,10.575-.08,4.403,1.121,0,2.333c0,15.28,0,30.561,0,45.841Z"/><path class="d" d="m21.848,32.654l-3.435-8.557-4.003,8.596-5.81-15.014h3.337l2.846,8.36,2.197-5.515-1.138-2.846h2.826l3.238,8.027,2.453-8.027h3.062l-5.574,14.974Z"/><path class="d" d="m57.521,17.582v15.033h-.078l-10.107-9.126.059,8.537h-2.885v-15.014h.118l10.088,9.263-.06-8.694h2.865Z"/></g></g></svg>