<?xml version="1.0" encoding="UTF-8"?><svg id="b" xmlns="http://www.w3.org/2000/svg" viewBox="0 0 134.036 173.508"><defs><style>.d{fill:#fff;}.e{fill:#6e8094;}.f{opacity:.8;}</style></defs><g id="c"><g><rect width="134.036" height="173.508"/><g class="f"><rect class="d" x="23.839" y="130.845" width="94.729" height="2.027"/><rect class="d" x="23.839" y="122.357" width="94.729" height="2.027"/><rect class="d" x="23.839" y="139.333" width="94.729" height="2.027"/><rect class="d" x="23.839" y="147.821" width="94.729" height="2.027"/></g><rect class="e" width="8.769" height="173.508"/><g><path class="d" d="m26.308,31.738h9.12l2.342,16.894,1.495,11.761h.2c.697-3.937,1.445-7.924,2.193-11.761l3.787-16.894h7.476l3.888,16.894c.747,3.787,1.395,7.774,2.142,11.761h.249c.449-3.987.947-7.924,1.395-11.761l2.392-16.894h8.472l-6.428,37.077h-11.213l-3.339-16.147c-.598-2.841-1.097-5.831-1.445-8.621h-.249c-.449,2.79-.897,5.781-1.446,8.621l-3.239,16.147h-11.013l-6.778-37.077Z"/><polygon class="d" points="114.112 31.738 113.643 31.738 85.577 31.738 85.108 31.738 82.724 31.738 82.724 39.113 85.108 39.113 85.577 39.113 95.125 39.113 95.125 68.815 104.046 68.815 104.046 39.113 113.643 39.113 114.112 39.113 116.496 39.113 116.496 31.738 114.112 31.738"/></g></g></g></svg>