<?xml version="1.0" encoding="UTF-8"?><svg id="b" xmlns="http://www.w3.org/2000/svg" viewBox="0 0 134.036 173.508"><defs><style>.d{fill:#fff;}.e{fill:#32363a;}</style></defs><g id="c"><g><rect width="134.036" height="173.508"/><g><rect class="d" x="24.038" y="49.23" width="94.729" height="2.027"/><rect class="d" x="24.038" y="132.38" width="94.729" height="2.027"/><rect class="d" x="24.038" y="123.893" width="94.729" height="2.027"/><rect class="d" x="24.038" y="140.868" width="94.729" height="2.027"/><rect class="d" x="24.038" y="149.356" width="94.729" height="2.027"/><g><path class="d" d="m39.77,44.991l-3.934-9.799-4.584,9.844-6.653-17.193h3.821l3.259,9.574,2.517-6.315-1.303-3.259h3.236l3.708,9.192,2.81-9.192h3.506l-6.383,17.148Z"/><path class="d" d="m53.322,41.215l1.394,2.337c-.539.3-1.108.54-1.708.719s-1.169.27-1.708.27c-1.169,0-2.177-.221-3.022-.663-.847-.442-1.487-1.064-1.922-1.866-.435-.801-.651-1.719-.651-2.753,0-.959.25-1.843.753-2.652.501-.809,1.187-1.449,2.056-1.921s1.82-.708,2.854-.708c1.408,0,2.565.412,3.473,1.236.906.824,1.494,2,1.764,3.528l-7.191,2.292c.479.555,1.131.832,1.955.832.629,0,1.281-.217,1.955-.652Zm-3.888-4.068c-.42.48-.63,1.124-.63,1.933v.202l4.315-1.461c-.314-.929-.981-1.394-2-1.394-.704,0-1.267.24-1.686.719Z"/><path class="d" d="m68.121,34.574c.712.412,1.277,1.008,1.697,1.787.419.779.629,1.708.629,2.787s-.232,2.026-.696,2.843c-.465.817-1.087,1.446-1.865,1.888-.779.441-1.626.663-2.54.663-1.334,0-2.435-.419-3.304-1.258v.989h-3.146v-17.732h3.124v8.585c.419-.345.951-.625,1.596-.843.644-.217,1.363-.326,2.157-.326.854,0,1.637.206,2.349.618Zm-2.18,6.956c.396-.24.715-.573.955-1,.239-.427.359-.895.359-1.404,0-.779-.255-1.423-.764-1.933-.51-.509-1.124-.764-1.843-.764-.615,0-1.154.143-1.618.427-.465.285-.795.667-.989,1.146v2.405c.539.989,1.408,1.483,2.607,1.483.464,0,.895-.12,1.292-.359Z"/><path class="d" d="m83.46,27.73v3.146h-4.023v13.395h-3.259v-13.395h-3.865v-3.146h11.147Z"/><path class="d" d="m90.697,41.215l1.394,2.337c-.539.3-1.108.54-1.708.719s-1.169.27-1.708.27c-1.169,0-2.177-.221-3.022-.663-.847-.442-1.487-1.064-1.922-1.866-.435-.801-.651-1.719-.651-2.753,0-.959.25-1.843.753-2.652.501-.809,1.187-1.449,2.056-1.921s1.82-.708,2.854-.708c1.408,0,2.565.412,3.473,1.236.906.824,1.494,2,1.764,3.528l-7.191,2.292c.479.555,1.131.832,1.955.832.629,0,1.281-.217,1.955-.652Zm-3.888-4.068c-.42.48-.63,1.124-.63,1.933v.202l4.315-1.461c-.314-.929-.981-1.394-2-1.394-.704,0-1.267.24-1.686.719Z"/><path class="d" d="m102.98,44.227c-.652.209-1.293.314-1.922.314-1.708,0-3.061-.46-4.057-1.382-.997-.922-1.494-2.191-1.494-3.81,0-1.049.243-1.967.729-2.753.487-.787,1.128-1.386,1.922-1.798.794-.412,1.648-.618,2.562-.618,1.633,0,2.959.435,3.978,1.304l-1.528,2.023c-.645-.509-1.363-.764-2.157-.764-.659,0-1.218.247-1.675.742-.457.494-.685,1.116-.685,1.865s.247,1.375.741,1.876c.494.502,1.139.753,1.933.753.689,0,1.259-.187,1.708-.562l1.573,1.978c-.435.345-.978.622-1.629.832Z"/><path class="d" d="m116.194,34.81c.622.555.94,1.259.955,2.113v7.349h-3.146v-6.181c-.045-.958-.524-1.438-1.438-1.438-.719,0-1.296.337-1.73,1.012s-.651,1.543-.651,2.607v4h-3.146v-17.732h3.079v9.462c.359-.629.857-1.124,1.494-1.483.637-.36,1.39-.54,2.259-.54.929,0,1.704.277,2.326.832Z"/></g></g><rect class="e" width="8.769" height="173.508"/></g></g></svg>