<?xml version="1.0" encoding="UTF-8"?><svg id="b" xmlns="http://www.w3.org/2000/svg" viewBox="0 0 69.023 48.174"><defs><style>.d{fill:#fff;}.e{fill:#373f42;}</style></defs><g id="c"><g><g><path d="m69.023,48.174c-4.541-1.014-10.404-1.902-17.253-1.902-6.851,0-12.716.888-17.259,1.902V2.333C38.669,1.188,44.308.08,51.031.004c7.417-.084,13.59,1.117,17.992,2.329v45.841Z"/><path d="m0,48.174c4.541-1.014,10.404-1.902,17.253-1.902,6.851,0,12.716.888,17.259,1.902,0-15.28,0-30.561,0-45.841C30.354,1.188,24.715.08,17.992.004,10.575-.08,4.403,1.121,0,2.333c0,15.28,0,30.561,0,45.841Z"/></g><path class="e" d="m66.136,44.632l-.902-.188c-10.046-2.09-20.595-2.088-30.627,0l-.152.032-.152-.032c-10.032-2.088-20.581-2.09-30.627,0l-.902.188V4.831l.563-.145c5.32-1.365,10.797-2.03,16.32-1.969,4.994.053,9.972.7,14.798,1.922,4.826-1.222,9.804-1.869,14.798-1.922h0c5.5-.058,11,.604,16.32,1.969l.563.145v39.801Zm-47.149-3.261c5.194,0,10.397.529,15.468,1.573,9.888-2.036,20.26-2.088,30.182-.15V5.998c-5.017-1.236-10.181-1.837-15.368-1.781h0c-4.938.052-9.859.699-14.627,1.922l-.187.048-.187-.048c-4.768-1.223-9.688-1.87-14.627-1.922-5.18-.063-10.352.544-15.368,1.781v36.795c4.834-.944,9.779-1.423,14.714-1.423Z"/><path class="d" d="m23.075,32.054l-3.435-8.557-4.003,8.596-5.81-15.014h3.337l2.846,8.36,2.197-5.515-1.138-2.846h2.826l3.238,8.027,2.453-8.027h3.062l-5.574,14.974Z"/><path class="d" d="m56.663,17.061v15.033h-.078l-10.107-9.126.059,8.537h-2.885v-15.014h.118l10.088,9.263-.06-8.694h2.865Z"/><rect class="e" x="33.704" y="5.187" width="1.5" height="37.756"/></g></g></svg>