<?xml version="1.0" encoding="UTF-8"?><svg id="b" xmlns="http://www.w3.org/2000/svg" viewBox="0 0 134.036 173.508"><defs><style>.d{fill:#fff;}.e{fill:#1b85ff;}.f{fill:#49abff;}.g{opacity:.8;}</style></defs><g id="c"><g><rect class="e" x="0" y="0" width="134.036" height="173.508" transform="translate(134.036 173.508) rotate(-180)"/><g class="g"><rect class="d" x="15.467" y="130.845" width="94.729" height="2.027" transform="translate(125.663 263.718) rotate(-180)"/><rect class="d" x="15.467" y="122.357" width="94.729" height="2.027" transform="translate(125.663 246.742) rotate(-180)"/><rect class="d" x="15.467" y="139.333" width="94.729" height="2.027" transform="translate(125.663 280.693) rotate(-180)"/><rect class="d" x="15.467" y="147.821" width="94.729" height="2.027" transform="translate(125.663 297.669) rotate(-180)"/></g><rect class="f" x="125.267" y="0" width="8.769" height="173.508" transform="translate(259.302 173.508) rotate(-180)"/><polygon class="d" points="78.289 43.238 77.789 43.238 47.875 43.238 47.375 43.238 44.834 43.238 44.834 51.099 47.375 51.099 47.875 51.099 58.051 51.099 58.051 82.756 67.559 82.756 67.559 51.099 77.789 51.099 78.289 51.099 80.829 51.099 80.829 43.238 78.289 43.238"/></g></g></svg>